<svg width="40" height="40" viewBox="0 0 40 40" fill="none" xmlns="http://www.w3.org/2000/svg">
<g clip-path="url(#clip0_444_10805)">
<rect width="40" height="40" rx="8" fill="url(#paint0_linear_444_10805)"/>
<g filter="url(#filter0_d_444_10805)">
<path fill-rule="evenodd" clip-rule="evenodd" d="M20 12.875C16.065 12.875 12.875 16.065 12.875 20C12.875 23.935 16.065 27.125 20 27.125C23.935 27.125 27.125 23.935 27.125 20C27.125 16.065 23.935 12.875 20 12.875ZM10.625 20C10.625 14.8223 14.8223 10.625 20 10.625C25.1777 10.625 29.375 14.8223 29.375 20C29.375 25.1777 25.1777 29.375 20 29.375C14.8223 29.375 10.625 25.1777 10.625 20Z" fill="#DED6FB"/>
</g>
<g filter="url(#filter1_d_444_10805)">
<path fill-rule="evenodd" clip-rule="evenodd" d="M24.5078 15.4921C24.9471 15.9314 24.9471 16.6438 24.5078 17.0831L20.7955 20.7954C20.3562 21.2347 19.6438 21.2347 19.2045 20.7954C18.7652 20.3561 18.7652 19.6438 19.2045 19.2044L22.9168 15.4921C23.3562 15.0528 24.0685 15.0528 24.5078 15.4921Z" fill="#DED6FB"/>
</g>
<g filter="url(#filter2_d_444_10805)">
<path fill-rule="evenodd" clip-rule="evenodd" d="M16.625 8.75C16.625 8.12868 17.1287 7.625 17.75 7.625H22.25C22.8713 7.625 23.375 8.12868 23.375 8.75C23.375 9.37132 22.8713 9.875 22.25 9.875H17.75C17.1287 9.875 16.625 9.37132 16.625 8.75Z" fill="#DED6FB"/>
</g>
</g>
<defs>
<filter id="filter0_d_444_10805" x="2.625" y="2.625" width="34.75" height="34.75" filterUnits="userSpaceOnUse" color-interpolation-filters="sRGB">
<feFlood flood-opacity="0" result="BackgroundImageFix"/>
<feColorMatrix in="SourceAlpha" type="matrix" values="0 0 0 0 0 0 0 0 0 0 0 0 0 0 0 0 0 0 127 0" result="hardAlpha"/>
<feOffset/>
<feGaussianBlur stdDeviation="4"/>
<feComposite in2="hardAlpha" operator="out"/>
<feColorMatrix type="matrix" values="0 0 0 0 0.866667 0 0 0 0 0.835294 0 0 0 0 0.984314 0 0 0 1 0"/>
<feBlend mode="normal" in2="BackgroundImageFix" result="effect1_dropShadow_444_10805"/>
<feBlend mode="normal" in="SourceGraphic" in2="effect1_dropShadow_444_10805" result="shape"/>
</filter>
<filter id="filter1_d_444_10805" x="10.875" y="7.1626" width="21.9623" height="21.9624" filterUnits="userSpaceOnUse" color-interpolation-filters="sRGB">
<feFlood flood-opacity="0" result="BackgroundImageFix"/>
<feColorMatrix in="SourceAlpha" type="matrix" values="0 0 0 0 0 0 0 0 0 0 0 0 0 0 0 0 0 0 127 0" result="hardAlpha"/>
<feOffset/>
<feGaussianBlur stdDeviation="4"/>
<feComposite in2="hardAlpha" operator="out"/>
<feColorMatrix type="matrix" values="0 0 0 0 0.866667 0 0 0 0 0.835294 0 0 0 0 0.984314 0 0 0 1 0"/>
<feBlend mode="normal" in2="BackgroundImageFix" result="effect1_dropShadow_444_10805"/>
<feBlend mode="normal" in="SourceGraphic" in2="effect1_dropShadow_444_10805" result="shape"/>
</filter>
<filter id="filter2_d_444_10805" x="8.625" y="-0.375" width="22.75" height="18.25" filterUnits="userSpaceOnUse" color-interpolation-filters="sRGB">
<feFlood flood-opacity="0" result="BackgroundImageFix"/>
<feColorMatrix in="SourceAlpha" type="matrix" values="0 0 0 0 0 0 0 0 0 0 0 0 0 0 0 0 0 0 127 0" result="hardAlpha"/>
<feOffset/>
<feGaussianBlur stdDeviation="4"/>
<feComposite in2="hardAlpha" operator="out"/>
<feColorMatrix type="matrix" values="0 0 0 0 0.866667 0 0 0 0 0.835294 0 0 0 0 0.984314 0 0 0 1 0"/>
<feBlend mode="normal" in2="BackgroundImageFix" result="effect1_dropShadow_444_10805"/>
<feBlend mode="normal" in="SourceGraphic" in2="effect1_dropShadow_444_10805" result="shape"/>
</filter>
<linearGradient id="paint0_linear_444_10805" x1="20" y1="0" x2="20" y2="40" gradientUnits="userSpaceOnUse">
<stop stop-color="#8062EF"/>
<stop offset="1" stop-color="#3111A6"/>
</linearGradient>
<clipPath id="clip0_444_10805">
<rect width="40" height="40" fill="white"/>
</clipPath>
</defs>
</svg>
