<svg width="40" height="40" viewBox="0 0 40 40" fill="none" xmlns="http://www.w3.org/2000/svg">
<g clip-path="url(#clip0_444_10817)">
<rect width="40" height="40" rx="8" fill="url(#paint0_linear_444_10817)"/>
<g filter="url(#filter0_d_444_10817)">
<path fill-rule="evenodd" clip-rule="evenodd" d="M30.5455 9.4545C30.9848 9.89384 30.9848 10.6062 30.5455 11.0455L28.341 13.25L28.5754 13.4844C28.8896 13.7978 29.1398 14.1709 29.31 14.5808C29.4803 14.991 29.568 15.4308 29.568 15.875C29.568 16.3192 29.4803 16.7591 29.31 17.1693C29.1398 17.5792 28.8904 17.9516 28.576 18.265L26.4647 20.3763C26.8593 20.818 26.8446 21.4964 26.4205 21.9205C25.9812 22.3598 25.2688 22.3598 24.8295 21.9205L24.0846 21.1756L24.0795 21.1705L24.0745 21.1655L18.8346 15.9256L18.8295 15.9205L18.8245 15.9155L18.0795 15.1705C17.6402 14.7312 17.6402 14.0188 18.0795 13.5795C18.5036 13.1554 19.182 13.1407 19.6237 13.5353L21.7344 11.4247C22.0478 11.1104 22.4208 10.8602 22.8307 10.69C23.241 10.5197 23.6808 10.432 24.125 10.432C24.5692 10.432 25.009 10.5197 25.4193 10.69C25.8291 10.8602 26.2014 11.1096 26.5148 11.4239L26.75 11.659L28.9545 9.4545C29.3938 9.01517 30.1062 9.01517 30.5455 9.4545ZM26.9871 16.6719L24.875 18.784L21.216 15.125L23.3281 13.0129C23.4326 12.908 23.5568 12.8248 23.6936 12.768C23.8303 12.7112 23.9769 12.682 24.125 12.682C24.2731 12.682 24.4197 12.7112 24.5564 12.768C24.6932 12.8248 24.8174 12.908 24.9219 13.0129L25.9545 14.0455L26.9858 15.0768L26.9871 15.0782C27.092 15.1827 27.1752 15.3069 27.232 15.4436C27.2888 15.5804 27.318 15.727 27.318 15.875C27.318 16.0231 27.2888 16.1697 27.232 16.3065C27.1752 16.4432 27.092 16.5674 26.9871 16.6719ZM17.841 20.75L19.2955 19.2955C19.7348 18.8562 19.7348 18.1438 19.2955 17.7045C18.8562 17.2652 18.1438 17.2652 17.7045 17.7045L16.25 19.159L15.9256 18.8346C15.9239 18.8329 15.9222 18.8312 15.9205 18.8295C15.9188 18.8278 15.9171 18.8261 15.9155 18.8245L15.1705 18.0795C14.7312 17.6402 14.0188 17.6402 13.5795 18.0795C13.1554 18.5036 13.1407 19.182 13.5353 19.6237L11.4239 21.7351C11.1096 22.0485 10.8602 22.4208 10.69 22.8307C10.5197 23.241 10.432 23.6808 10.432 24.125C10.432 24.5692 10.5197 25.009 10.69 25.4193C10.8602 25.8291 11.1104 26.2022 11.4247 26.5156L11.659 26.75L9.4545 28.9545C9.01517 29.3938 9.01517 30.1062 9.4545 30.5455C9.89384 30.9848 10.6062 30.9848 11.0455 30.5455L13.25 28.341L13.4853 28.5762C13.7986 28.8905 14.1709 29.1398 14.5808 29.31C14.991 29.4803 15.4308 29.568 15.875 29.568C16.3192 29.568 16.7591 29.4803 17.1693 29.31C17.5792 29.1398 17.9522 28.8897 18.2657 28.5754L20.3763 26.4647C20.818 26.8593 21.4964 26.8446 21.9205 26.4205C22.3598 25.9812 22.3598 25.2688 21.9205 24.8295L21.1756 24.0846C21.1739 24.0829 21.1722 24.0812 21.1705 24.0795C21.1688 24.0778 21.1671 24.0761 21.1655 24.0745L20.841 23.75L22.2955 22.2955C22.7348 21.8562 22.7348 21.1438 22.2955 20.7045C21.8562 20.2652 21.1438 20.2652 20.7045 20.7045L19.25 22.159L17.841 20.75ZM15.125 21.216L15.4545 21.5455L18.4545 24.5455L18.784 24.875L16.6719 26.9871C16.5674 27.092 16.4432 27.1752 16.3065 27.232C16.1697 27.2888 16.0231 27.318 15.875 27.318C15.727 27.318 15.5804 27.2888 15.4436 27.232C15.3069 27.1752 15.1827 27.092 15.0782 26.9871L14.0455 25.9545L13.0143 24.9233L13.0129 24.9219C12.908 24.8174 12.8248 24.6932 12.768 24.5564C12.7112 24.4197 12.682 24.2731 12.682 24.125C12.682 23.9769 12.7112 23.8303 12.768 23.6936C12.8248 23.5568 12.908 23.4326 13.0129 23.3281L15.125 21.216Z" fill="#DED6FB"/>
</g>
</g>
<defs>
<filter id="filter0_d_444_10817" x="1.125" y="1.125" width="37.75" height="37.75" filterUnits="userSpaceOnUse" color-interpolation-filters="sRGB">
<feFlood flood-opacity="0" result="BackgroundImageFix"/>
<feColorMatrix in="SourceAlpha" type="matrix" values="0 0 0 0 0 0 0 0 0 0 0 0 0 0 0 0 0 0 127 0" result="hardAlpha"/>
<feOffset/>
<feGaussianBlur stdDeviation="4"/>
<feComposite in2="hardAlpha" operator="out"/>
<feColorMatrix type="matrix" values="0 0 0 0 0.866667 0 0 0 0 0.835294 0 0 0 0 0.984314 0 0 0 1 0"/>
<feBlend mode="normal" in2="BackgroundImageFix" result="effect1_dropShadow_444_10817"/>
<feBlend mode="normal" in="SourceGraphic" in2="effect1_dropShadow_444_10817" result="shape"/>
</filter>
<linearGradient id="paint0_linear_444_10817" x1="20" y1="0" x2="20" y2="40" gradientUnits="userSpaceOnUse">
<stop stop-color="#8062EF"/>
<stop offset="1" stop-color="#3111A6"/>
</linearGradient>
<clipPath id="clip0_444_10817">
<rect width="40" height="40" fill="white"/>
</clipPath>
</defs>
</svg>
