<svg width="40" height="40" viewBox="0 0 40 40" fill="none" xmlns="http://www.w3.org/2000/svg">
<g clip-path="url(#clip0_571_15748)">
<rect width="40" height="40" rx="8" fill="url(#paint0_linear_571_15748)"/>
<g filter="url(#filter0_d_571_15748)">
<path fill-rule="evenodd" clip-rule="evenodd" d="M11 11.375C11.6213 11.375 12.125 11.8787 12.125 12.5V26.375H29C29.6213 26.375 30.125 26.8787 30.125 27.5C30.125 28.1213 29.6213 28.625 29 28.625H11C10.3787 28.625 9.875 28.1213 9.875 27.5V12.5C9.875 11.8787 10.3787 11.375 11 11.375Z" fill="#DED6FB"/>
</g>
<g filter="url(#filter1_d_571_15748)">
<path fill-rule="evenodd" clip-rule="evenodd" d="M29.8467 16.2592C30.2558 16.7268 30.2084 17.4375 29.7408 17.8467L23.7408 23.0967C23.3408 23.4467 22.7503 23.469 22.325 23.15L17.0545 19.1972L11.7408 23.8467C11.2732 24.2558 10.5625 24.2084 10.1534 23.7408C9.74422 23.2732 9.79161 22.5625 10.2592 22.1534L16.2592 16.9034C16.6593 16.5533 17.2497 16.5311 17.675 16.85L22.9455 20.8029L28.2592 16.1534C28.7268 15.7442 29.4375 15.7916 29.8467 16.2592Z" fill="#DED6FB"/>
</g>
</g>
<defs>
<filter id="filter0_d_571_15748" x="1.875" y="3.375" width="36.25" height="33.25" filterUnits="userSpaceOnUse" color-interpolation-filters="sRGB">
<feFlood flood-opacity="0" result="BackgroundImageFix"/>
<feColorMatrix in="SourceAlpha" type="matrix" values="0 0 0 0 0 0 0 0 0 0 0 0 0 0 0 0 0 0 127 0" result="hardAlpha"/>
<feOffset/>
<feGaussianBlur stdDeviation="4"/>
<feComposite in2="hardAlpha" operator="out"/>
<feColorMatrix type="matrix" values="0 0 0 0 0.866667 0 0 0 0 0.835294 0 0 0 0 0.984314 0 0 0 1 0"/>
<feBlend mode="normal" in2="BackgroundImageFix" result="effect1_dropShadow_571_15748"/>
<feBlend mode="normal" in="SourceGraphic" in2="effect1_dropShadow_571_15748" result="shape"/>
</filter>
<filter id="filter1_d_571_15748" x="1.875" y="7.875" width="36.25" height="24.25" filterUnits="userSpaceOnUse" color-interpolation-filters="sRGB">
<feFlood flood-opacity="0" result="BackgroundImageFix"/>
<feColorMatrix in="SourceAlpha" type="matrix" values="0 0 0 0 0 0 0 0 0 0 0 0 0 0 0 0 0 0 127 0" result="hardAlpha"/>
<feOffset/>
<feGaussianBlur stdDeviation="4"/>
<feComposite in2="hardAlpha" operator="out"/>
<feColorMatrix type="matrix" values="0 0 0 0 0.866667 0 0 0 0 0.835294 0 0 0 0 0.984314 0 0 0 1 0"/>
<feBlend mode="normal" in2="BackgroundImageFix" result="effect1_dropShadow_571_15748"/>
<feBlend mode="normal" in="SourceGraphic" in2="effect1_dropShadow_571_15748" result="shape"/>
</filter>
<linearGradient id="paint0_linear_571_15748" x1="20" y1="0" x2="20" y2="40" gradientUnits="userSpaceOnUse">
<stop stop-color="#8062EF"/>
<stop offset="1" stop-color="#3111A6"/>
</linearGradient>
<clipPath id="clip0_571_15748">
<rect width="40" height="40" fill="white"/>
</clipPath>
</defs>
</svg>
