<svg width="40" height="40" viewBox="0 0 40 40" fill="none" xmlns="http://www.w3.org/2000/svg">
<g clip-path="url(#clip0_647_18801)">
<rect width="40" height="40" rx="8" fill="url(#paint0_linear_647_18801)"/>
<g filter="url(#filter0_d_647_18801)">
<path fill-rule="evenodd" clip-rule="evenodd" d="M20 18.5C18.5503 18.5 17.375 19.6753 17.375 21.125C17.375 22.5747 18.5503 23.75 20 23.75C21.4497 23.75 22.625 22.5747 22.625 21.125C22.625 19.6753 21.4497 18.5 20 18.5ZM15.125 21.125C15.125 18.4326 17.3076 16.25 20 16.25C22.6924 16.25 24.875 18.4326 24.875 21.125C24.875 23.8174 22.6924 26 20 26C17.3076 26 15.125 23.8174 15.125 21.125Z" fill="#DED6FB"/>
</g>
<g filter="url(#filter1_d_647_18801)">
<path fill-rule="evenodd" clip-rule="evenodd" d="M28.388 20.474C27.7633 20.1617 27.0744 19.9994 26.3759 20C25.7546 20.0005 25.2505 19.4973 25.25 18.8759C25.2495 18.2546 25.7527 17.7505 26.3741 17.75C27.4224 17.7491 28.4564 17.9927 29.3941 18.4615C30.3317 18.9302 31.1471 19.6111 31.7756 20.4502C32.148 20.9475 32.0468 21.6526 31.5495 22.025C31.0522 22.3975 30.3471 22.2963 29.9747 21.799C29.556 21.24 29.0127 20.7863 28.388 20.474Z" fill="#DED6FB"/>
</g>
<g filter="url(#filter2_d_647_18801)">
<path fill-rule="evenodd" clip-rule="evenodd" d="M13.6244 20C12.9259 19.9994 12.237 20.1617 11.6122 20.4741C10.9875 20.7864 10.4442 21.2401 10.0256 21.7992C9.65311 22.2965 8.94803 22.3977 8.45071 22.0253C7.95339 21.6529 7.85215 20.9478 8.22458 20.4505C8.85299 19.6113 9.66843 18.9303 10.6061 18.4615C11.5438 17.9928 12.5779 17.7491 13.6263 17.75C14.2476 17.7505 14.7508 18.2546 14.7503 18.8759C14.7498 19.4973 14.2457 20.0005 13.6244 20Z" fill="#DED6FB"/>
</g>
<g filter="url(#filter3_d_647_18801)">
<path fill-rule="evenodd" clip-rule="evenodd" d="M19.9996 26C19.085 26 18.1889 26.2571 17.4135 26.742C16.6381 27.227 16.0146 27.9201 15.6143 28.7424C15.3423 29.301 14.669 29.5334 14.1103 29.2614C13.5517 28.9894 13.3193 28.3161 13.5913 27.7575C14.1763 26.5559 15.0874 25.543 16.2205 24.8344C17.3536 24.1258 18.6631 23.75 19.9996 23.75C21.336 23.75 22.6455 24.1257 23.7786 24.8343C24.9117 25.5429 25.8228 26.5558 26.4078 27.7574C26.6798 28.3161 26.4474 28.9894 25.8888 29.2614C25.3302 29.5334 24.6568 29.301 24.3849 28.7424C23.9845 27.9201 23.3611 27.2269 22.5857 26.742C21.8102 26.2571 20.9141 26 19.9996 26Z" fill="#DED6FB"/>
</g>
<g filter="url(#filter4_d_647_18801)">
<path fill-rule="evenodd" clip-rule="evenodd" d="M14.0919 14.0588C13.7473 13.9704 13.3846 13.9819 13.0463 14.0919C12.708 14.2018 12.4079 14.4058 12.1812 14.68C11.9544 14.9541 11.8103 15.2871 11.7658 15.64C11.7212 15.993 11.7779 16.3513 11.9294 16.6733C12.0808 16.9952 12.3208 17.2673 12.6211 17.458C12.9215 17.6487 13.2699 17.7499 13.6256 17.75C14.2469 17.7501 14.7505 18.2539 14.7504 18.8752C14.7503 19.4965 14.2465 20.0001 13.6252 20C12.8425 19.9999 12.0761 19.777 11.4153 19.3576C10.7545 18.9381 10.2267 18.3394 9.89348 17.6312C9.56027 16.923 9.43542 16.1346 9.5335 15.3581C9.63158 14.5816 9.94854 13.849 10.4474 13.2459C10.9462 12.6428 11.6063 12.1941 12.3507 11.9521C13.095 11.7101 13.8928 11.6849 14.6509 11.8794C15.4091 12.0738 16.0962 12.48 16.6321 13.0504C17.1681 13.6207 17.5307 14.3318 17.6776 15.1006C17.7943 15.7109 17.3941 16.3001 16.7838 16.4168C16.1736 16.5334 15.5843 16.1333 15.4676 15.523C15.4009 15.1736 15.236 14.8503 14.9924 14.5911C14.7488 14.3318 14.4365 14.1472 14.0919 14.0588Z" fill="#DED6FB"/>
</g>
<g filter="url(#filter5_d_647_18801)">
<path fill-rule="evenodd" clip-rule="evenodd" d="M26.9546 14.0914C26.6162 13.9814 26.2535 13.9699 25.9088 14.0584C25.5642 14.1468 25.2518 14.3315 25.0082 14.5908C24.7645 14.8501 24.5997 15.1734 24.533 15.5229C24.4164 16.1332 23.8272 16.5335 23.2169 16.4169C22.6066 16.3003 22.2063 15.7111 22.3229 15.1008C22.4698 14.3319 22.8324 13.6207 23.3683 13.0502C23.9043 12.4797 24.5914 12.0735 25.3496 11.879C26.1078 11.6844 26.9057 11.7096 27.6502 11.9516C28.3946 12.1935 29.0548 12.6423 29.5537 13.2455C30.0526 13.8486 30.3696 14.5813 30.4677 15.3579C30.5657 16.1345 30.4408 16.9229 30.1076 17.6312C29.7743 18.3395 29.2464 18.9383 28.5855 19.3577C27.9246 19.7772 27.158 20 26.3753 20C25.7539 20.0001 25.2502 19.4964 25.2502 18.8751C25.2501 18.2538 25.7538 17.7501 26.3751 17.75C26.7309 17.75 27.0794 17.6487 27.3798 17.458C27.6802 17.2674 27.9202 16.9952 28.0717 16.6732C28.2232 16.3512 28.28 15.9928 28.2354 15.6398C28.1908 15.2868 28.0467 14.9537 27.8199 14.6795C27.5931 14.4054 27.293 14.2014 26.9546 14.0914Z" fill="#DED6FB"/>
</g>
</g>
<defs>
<filter id="filter0_d_647_18801" x="7.125" y="8.25" width="25.75" height="25.75" filterUnits="userSpaceOnUse" color-interpolation-filters="sRGB">
<feFlood flood-opacity="0" result="BackgroundImageFix"/>
<feColorMatrix in="SourceAlpha" type="matrix" values="0 0 0 0 0 0 0 0 0 0 0 0 0 0 0 0 0 0 127 0" result="hardAlpha"/>
<feOffset/>
<feGaussianBlur stdDeviation="4"/>
<feComposite in2="hardAlpha" operator="out"/>
<feColorMatrix type="matrix" values="0 0 0 0 0.866667 0 0 0 0 0.835294 0 0 0 0 0.984314 0 0 0 1 0"/>
<feBlend mode="normal" in2="BackgroundImageFix" result="effect1_dropShadow_647_18801"/>
<feBlend mode="normal" in="SourceGraphic" in2="effect1_dropShadow_647_18801" result="shape"/>
</filter>
<filter id="filter1_d_647_18801" x="17.25" y="9.75" width="22.75" height="20.4996" filterUnits="userSpaceOnUse" color-interpolation-filters="sRGB">
<feFlood flood-opacity="0" result="BackgroundImageFix"/>
<feColorMatrix in="SourceAlpha" type="matrix" values="0 0 0 0 0 0 0 0 0 0 0 0 0 0 0 0 0 0 127 0" result="hardAlpha"/>
<feOffset/>
<feGaussianBlur stdDeviation="4"/>
<feComposite in2="hardAlpha" operator="out"/>
<feColorMatrix type="matrix" values="0 0 0 0 0.866667 0 0 0 0 0.835294 0 0 0 0 0.984314 0 0 0 1 0"/>
<feBlend mode="normal" in2="BackgroundImageFix" result="effect1_dropShadow_647_18801"/>
<feBlend mode="normal" in="SourceGraphic" in2="effect1_dropShadow_647_18801" result="shape"/>
</filter>
<filter id="filter2_d_647_18801" x="0" y="9.75" width="22.75" height="20.4999" filterUnits="userSpaceOnUse" color-interpolation-filters="sRGB">
<feFlood flood-opacity="0" result="BackgroundImageFix"/>
<feColorMatrix in="SourceAlpha" type="matrix" values="0 0 0 0 0 0 0 0 0 0 0 0 0 0 0 0 0 0 127 0" result="hardAlpha"/>
<feOffset/>
<feGaussianBlur stdDeviation="4"/>
<feComposite in2="hardAlpha" operator="out"/>
<feColorMatrix type="matrix" values="0 0 0 0 0.866667 0 0 0 0 0.835294 0 0 0 0 0.984314 0 0 0 1 0"/>
<feBlend mode="normal" in2="BackgroundImageFix" result="effect1_dropShadow_647_18801"/>
<feBlend mode="normal" in="SourceGraphic" in2="effect1_dropShadow_647_18801" result="shape"/>
</filter>
<filter id="filter3_d_647_18801" x="5.47754" y="15.75" width="29.0439" height="21.6251" filterUnits="userSpaceOnUse" color-interpolation-filters="sRGB">
<feFlood flood-opacity="0" result="BackgroundImageFix"/>
<feColorMatrix in="SourceAlpha" type="matrix" values="0 0 0 0 0 0 0 0 0 0 0 0 0 0 0 0 0 0 127 0" result="hardAlpha"/>
<feOffset/>
<feGaussianBlur stdDeviation="4"/>
<feComposite in2="hardAlpha" operator="out"/>
<feColorMatrix type="matrix" values="0 0 0 0 0.866667 0 0 0 0 0.835294 0 0 0 0 0.984314 0 0 0 1 0"/>
<feBlend mode="normal" in2="BackgroundImageFix" result="effect1_dropShadow_647_18801"/>
<feBlend mode="normal" in="SourceGraphic" in2="effect1_dropShadow_647_18801" result="shape"/>
</filter>
<filter id="filter4_d_647_18801" x="1.50098" y="3.75" width="24.1973" height="24.25" filterUnits="userSpaceOnUse" color-interpolation-filters="sRGB">
<feFlood flood-opacity="0" result="BackgroundImageFix"/>
<feColorMatrix in="SourceAlpha" type="matrix" values="0 0 0 0 0 0 0 0 0 0 0 0 0 0 0 0 0 0 127 0" result="hardAlpha"/>
<feOffset/>
<feGaussianBlur stdDeviation="4"/>
<feComposite in2="hardAlpha" operator="out"/>
<feColorMatrix type="matrix" values="0 0 0 0 0.866667 0 0 0 0 0.835294 0 0 0 0 0.984314 0 0 0 1 0"/>
<feBlend mode="normal" in2="BackgroundImageFix" result="effect1_dropShadow_647_18801"/>
<feBlend mode="normal" in="SourceGraphic" in2="effect1_dropShadow_647_18801" result="shape"/>
</filter>
<filter id="filter5_d_647_18801" x="14.3027" y="3.74951" width="24.1973" height="24.2505" filterUnits="userSpaceOnUse" color-interpolation-filters="sRGB">
<feFlood flood-opacity="0" result="BackgroundImageFix"/>
<feColorMatrix in="SourceAlpha" type="matrix" values="0 0 0 0 0 0 0 0 0 0 0 0 0 0 0 0 0 0 127 0" result="hardAlpha"/>
<feOffset/>
<feGaussianBlur stdDeviation="4"/>
<feComposite in2="hardAlpha" operator="out"/>
<feColorMatrix type="matrix" values="0 0 0 0 0.866667 0 0 0 0 0.835294 0 0 0 0 0.984314 0 0 0 1 0"/>
<feBlend mode="normal" in2="BackgroundImageFix" result="effect1_dropShadow_647_18801"/>
<feBlend mode="normal" in="SourceGraphic" in2="effect1_dropShadow_647_18801" result="shape"/>
</filter>
<linearGradient id="paint0_linear_647_18801" x1="20" y1="0" x2="20" y2="40" gradientUnits="userSpaceOnUse">
<stop stop-color="#8062EF"/>
<stop offset="1" stop-color="#3111A6"/>
</linearGradient>
<clipPath id="clip0_647_18801">
<rect width="40" height="40" fill="white"/>
</clipPath>
</defs>
</svg>
