<svg width="40" height="40" viewBox="0 0 40 40" fill="none" xmlns="http://www.w3.org/2000/svg">
<g clip-path="url(#clip0_573_17049)">
<rect width="40" height="40" rx="8" fill="url(#paint0_linear_573_17049)"/>
<g filter="url(#filter0_d_573_17049)">
<path fill-rule="evenodd" clip-rule="evenodd" d="M13.25 13.625C13.1505 13.625 13.0552 13.6645 12.9848 13.7348C12.9145 13.8052 12.875 13.9005 12.875 14C12.875 14.0995 12.9145 14.1948 12.9848 14.2652C13.0552 14.3355 13.1505 14.375 13.25 14.375H28.25C28.7473 14.375 29.2242 14.5725 29.5758 14.9242C29.9275 15.2758 30.125 15.7527 30.125 16.25V26.75C30.125 27.2473 29.9275 27.7242 29.5758 28.0758C29.2242 28.4275 28.7473 28.625 28.25 28.625H13.25C12.5538 28.625 11.8861 28.3484 11.3938 27.8562C10.9016 27.3639 10.625 26.6962 10.625 26V14C10.625 13.3038 10.9016 12.6361 11.3938 12.1438C11.8861 11.6516 12.5538 11.375 13.25 11.375H26C26.6213 11.375 27.125 11.8787 27.125 12.5C27.125 13.1213 26.6213 13.625 26 13.625H13.25ZM12.875 16.5981V26C12.875 26.0995 12.9145 26.1948 12.9848 26.2652C13.0552 26.3355 13.1505 26.375 13.25 26.375H27.875V16.625H13.25C13.1238 16.625 12.9985 16.6159 12.875 16.5981Z" fill="#DED6FB"/>
</g>
<g filter="url(#filter1_d_573_17049)">
<path d="M24.875 22.625C25.4963 22.625 26 22.1213 26 21.5C26 20.8787 25.4963 20.375 24.875 20.375C24.2537 20.375 23.75 20.8787 23.75 21.5C23.75 22.1213 24.2537 22.625 24.875 22.625Z" fill="#DED6FB"/>
</g>
</g>
<defs>
<filter id="filter0_d_573_17049" x="2.625" y="3.375" width="35.5" height="33.25" filterUnits="userSpaceOnUse" color-interpolation-filters="sRGB">
<feFlood flood-opacity="0" result="BackgroundImageFix"/>
<feColorMatrix in="SourceAlpha" type="matrix" values="0 0 0 0 0 0 0 0 0 0 0 0 0 0 0 0 0 0 127 0" result="hardAlpha"/>
<feOffset/>
<feGaussianBlur stdDeviation="4"/>
<feComposite in2="hardAlpha" operator="out"/>
<feColorMatrix type="matrix" values="0 0 0 0 0.866667 0 0 0 0 0.835294 0 0 0 0 0.984314 0 0 0 1 0"/>
<feBlend mode="normal" in2="BackgroundImageFix" result="effect1_dropShadow_573_17049"/>
<feBlend mode="normal" in="SourceGraphic" in2="effect1_dropShadow_573_17049" result="shape"/>
</filter>
<filter id="filter1_d_573_17049" x="15.75" y="12.375" width="18.25" height="18.25" filterUnits="userSpaceOnUse" color-interpolation-filters="sRGB">
<feFlood flood-opacity="0" result="BackgroundImageFix"/>
<feColorMatrix in="SourceAlpha" type="matrix" values="0 0 0 0 0 0 0 0 0 0 0 0 0 0 0 0 0 0 127 0" result="hardAlpha"/>
<feOffset/>
<feGaussianBlur stdDeviation="4"/>
<feComposite in2="hardAlpha" operator="out"/>
<feColorMatrix type="matrix" values="0 0 0 0 0.866667 0 0 0 0 0.835294 0 0 0 0 0.984314 0 0 0 1 0"/>
<feBlend mode="normal" in2="BackgroundImageFix" result="effect1_dropShadow_573_17049"/>
<feBlend mode="normal" in="SourceGraphic" in2="effect1_dropShadow_573_17049" result="shape"/>
</filter>
<linearGradient id="paint0_linear_573_17049" x1="20" y1="0" x2="20" y2="40" gradientUnits="userSpaceOnUse">
<stop stop-color="#8062EF"/>
<stop offset="1" stop-color="#3111A6"/>
</linearGradient>
<clipPath id="clip0_573_17049">
<rect width="40" height="40" fill="white"/>
</clipPath>
</defs>
</svg>
