<svg width="960" height="568" viewBox="0 0 960 568" fill="none" xmlns="http://www.w3.org/2000/svg">
<g opacity="0.2">
<path d="M120 142C120 168.45 130.697 192.401 148 209.764C165.303 227.128 165.303 376.873 148 394.236C130.697 411.599 120 435.55 120 462C120 515.019 162.981 558 216 558C269.019 558 312 515.019 312 462C312 431.683 297.947 404.649 276 387.056C254.053 369.462 222.074 227.886 276 239.415C329.926 250.943 378.648 287.623 386.171 322.395C395.522 365.617 433.979 398 480 398C526.883 398 565.917 364.392 574.324 319.954C581.168 283.778 630.306 248.342 684 238.059C737.694 227.776 705.947 369.462 684 387.056C662.053 404.649 648 431.683 648 462C648 515.019 690.981 558 744 558C797.019 558 840 515.019 840 462C840 435.55 829.303 411.599 812 394.236C794.697 376.873 794.697 227.128 812 209.764C829.303 192.401 840 168.45 840 142C840 88.9807 797.019 46 744 46C695.348 46 655.149 82.1915 648.856 129.121C642.564 176.05 571.615 213.578 508.336 210.25C487.205 209.139 470.349 209.866 449.27 211.024C387.204 214.433 316.684 179.49 311.426 131.439C306.168 83.3888 265.45 46 216 46C162.981 46 120 88.9807 120 142Z" fill="#CDD6DF"/>
<circle cx="216" cy="142" r="96" transform="rotate(90 216 142)" fill="#CDD6DF"/>
<circle cx="216" cy="462" r="96" transform="rotate(90 216 462)" fill="#CDD6DF"/>
<circle cx="480" cy="606" r="96" transform="rotate(90 480 606)" fill="#CDD6DF"/>
<circle cx="744" cy="462" r="96" transform="rotate(90 744 462)" fill="#CDD6DF"/>
<circle cx="744" cy="142" r="96" transform="rotate(90 744 142)" fill="#CDD6DF"/>
<circle cx="480" cy="-2" r="96" transform="rotate(90 480 -2)" fill="#CDD6DF"/>
<circle cx="480" cy="302" r="96" transform="rotate(90 480 302)" fill="#CDD6DF"/>
</g>
</svg>
