<svg width="120" height="48" viewBox="0 0 120 48" fill="none" xmlns="http://www.w3.org/2000/svg">
<circle cx="23.85" cy="35.3998" r="3.6" transform="rotate(90 23.85 35.3998)" fill="white"/>
<ellipse cx="23.85" cy="12.6" rx="3.6" ry="3.6" transform="rotate(90 23.85 12.6)" fill="white"/>
<path d="M10.35 17.9999C10.35 18.9918 10.7512 19.8899 11.4 20.5411C12.0489 21.1922 12.0489 26.8076 11.4 27.4587C10.7512 28.1099 10.35 29.008 10.35 29.9999C10.35 31.9881 11.9618 33.5999 13.95 33.5999C15.9383 33.5999 17.55 31.9881 17.55 29.9999C17.55 28.863 17.0231 27.8492 16.2 27.1895C15.377 26.5297 14.1778 21.2206 16.2 21.6529C18.2223 22.0853 20.0493 23.4608 20.3314 24.7647C20.6821 26.3856 22.1243 27.5999 23.85 27.5999C25.6082 27.5999 27.0719 26.3396 27.3872 24.6732C27.6438 23.3166 29.4865 21.9877 31.5 21.6021C33.5136 21.2165 32.3231 26.5297 31.5 27.1895C30.677 27.8492 30.15 28.863 30.15 29.9999C30.15 31.9881 31.7618 33.5999 33.75 33.5999C35.7383 33.5999 37.35 31.9881 37.35 29.9999C37.35 29.008 36.9489 28.1099 36.3 27.4587C35.6512 26.8076 35.6512 21.1922 36.3 20.5411C36.9489 19.8899 37.35 18.9918 37.35 17.9999C37.35 16.0117 35.7383 14.3999 33.75 14.3999C31.9256 14.3999 30.4181 15.7571 30.1822 17.5169C29.9462 19.2768 27.2856 20.6841 24.9126 20.5593C24.1202 20.5176 23.4881 20.5449 22.6977 20.5883C20.3702 20.7162 17.7257 19.4058 17.5285 17.6039C17.3313 15.802 15.8044 14.3999 13.95 14.3999C11.9618 14.3999 10.35 16.0117 10.35 17.9999Z" fill="white"/>
<path d="M46.452 36.9001V12.7081H50.5512L58.548 28.7689L66.5448 12.7081H70.644V36.9001H66.3768V22.4521L59.3544 36.9001H57.7416L50.7192 22.4521V36.9001H46.452Z" fill="white"/>
<path d="M75.0958 16.2361V12.2041H79.6654V16.2361H75.0958ZM75.0958 36.9001V18.7561H79.6654V36.9001H75.0958Z" fill="white"/>
<path d="M84.102 36.9001V18.7561H88.134V23.1913L87.6972 22.6201C87.9324 21.9929 88.246 21.4217 88.638 20.9065C89.03 20.3913 89.5116 19.9657 90.0828 19.6297C90.5196 19.3609 90.9956 19.1537 91.5108 19.0081C92.026 18.8513 92.558 18.7561 93.1068 18.7225C93.6556 18.6777 94.2044 18.6889 94.7532 18.7561V23.0233C94.2492 22.8665 93.6612 22.8161 92.9892 22.8721C92.3284 22.9169 91.7292 23.0681 91.1916 23.3257C90.654 23.5721 90.2004 23.9025 89.8308 24.3169C89.4612 24.7201 89.1812 25.2017 88.9908 25.7617C88.8004 26.3105 88.7052 26.9321 88.7052 27.6265V36.9001H84.102Z" fill="white"/>
<path d="M104.102 37.4377C102.68 37.4377 101.521 37.1969 100.625 36.7153C99.7289 36.2337 99.0289 35.6233 98.5249 34.8841C98.0321 34.1449 97.6793 33.3777 97.4665 32.5825C97.2537 31.7761 97.1249 31.0425 97.0801 30.3817C97.0353 29.7209 97.0129 29.2393 97.0129 28.9369V18.7561H101.65V27.3241C101.65 27.7385 101.672 28.2705 101.717 28.9201C101.762 29.5585 101.902 30.2025 102.137 30.8521C102.372 31.5017 102.753 32.0449 103.279 32.4817C103.817 32.9185 104.573 33.1369 105.547 33.1369C105.939 33.1369 106.359 33.0753 106.807 32.9521C107.255 32.8289 107.675 32.5937 108.067 32.2465C108.459 31.8881 108.778 31.3673 109.025 30.6841C109.282 29.9897 109.411 29.0825 109.411 27.9625L112.032 29.2057C112.032 30.6393 111.741 31.9833 111.158 33.2377C110.576 34.4921 109.697 35.5057 108.521 36.2785C107.356 37.0513 105.883 37.4377 104.102 37.4377ZM109.982 36.9001V30.8857H109.411V18.7561H114.014V36.9001H109.982Z" fill="white"/>
</svg>
